<?xml version="1.0" encoding="UTF-8"?>
<svg id="Layer_1" xmlns="http://www.w3.org/2000/svg" version="1.1" viewBox="0 0 583.77 109.86">
  <!-- Generator: Adobe Illustrator 30.3.0, SVG Export Plug-In . SVG Version: 2.1.3 Build 182)  -->
  <defs>
    <style>
      .st0 {
        fill: #315caa;
      }
    </style>
  </defs>
  <g>
    <path class="st0" d="M0,107.06v-17.31h4.36c.98,0,1.85.08,2.64.25.77.17,1.43.45,1.97.83s.94.89,1.24,1.5.44,1.36.44,2.26c0,1.7-.55,2.96-1.63,3.79s-2.6,1.25-4.54,1.25H1.21v7.43H0ZM1.21,98.6h2.96c1.77,0,3.08-.31,3.93-.94.86-.63,1.29-1.66,1.29-3.08s-.44-2.44-1.32-2.99-2.22-.81-4-.81H1.21v7.83Z"/>
    <path class="st0" d="M14.42,107.06v-17.31h4.96c.86,0,1.64.08,2.33.25.7.17,1.29.44,1.78.8s.87.84,1.14,1.42c.27.58.41,1.28.41,2.09,0,1.38-.39,2.47-1.19,3.26s-1.88,1.26-3.25,1.45l4.78,8.04h-1.39l-4.71-7.95h-3.68v7.95h-1.21.03ZM15.63,98.11h3.44c1.55,0,2.71-.31,3.53-.93s1.22-1.57,1.22-2.85-.41-2.21-1.24-2.74c-.83-.53-2-.8-3.51-.8h-3.44v7.33h0Z"/>
    <path class="st0" d="M28.71,107.06v-17.31h9.48v1.05h-8.28v6.53h6.93v1.05h-6.93v7.62h8.53v1.05h-9.74Z"/>
    <path class="st0" d="M48.38,107.37c-1.07,0-2.05-.21-2.94-.63-.9-.42-1.66-1.03-2.3-1.8-.65-.77-1.14-1.73-1.49-2.84-.35-1.11-.52-2.36-.52-3.74s.18-2.6.53-3.71.86-2.04,1.5-2.82c.65-.77,1.42-1.38,2.32-1.78.9-.41,1.91-.62,3.01-.62,1.01,0,1.91.21,2.68.63.77.42,1.38.9,1.84,1.45l-.7.81c-.48-.55-1.03-.97-1.66-1.31-.63-.32-1.33-.49-2.12-.49-.94,0-1.8.18-2.56.55s-1.41.89-1.94,1.56-.94,1.49-1.22,2.46-.42,2.05-.42,3.26.14,2.3.42,3.27c.28.97.69,1.8,1.21,2.49s1.15,1.21,1.9,1.59,1.57.56,2.52.56,1.69-.18,2.39-.53,1.36-.89,2-1.59l.7.76c-.66.77-1.41,1.38-2.23,1.81s-1.8.66-2.91.66Z"/>
    <path class="st0" d="M57.04,107.06v-17.31h1.21v17.31h-1.21Z"/>
    <path class="st0" d="M67.85,107.37c-1.26,0-2.37-.24-3.36-.72-.98-.48-1.81-1.11-2.5-1.88l.79-.84c.63.72,1.38,1.29,2.26,1.7s1.81.63,2.81.63c1.33,0,2.37-.32,3.15-.96.77-.63,1.15-1.48,1.15-2.5,0-.55-.08-1-.25-1.38-.17-.38-.39-.7-.67-.97s-.6-.51-.98-.69c-.38-.2-.77-.38-1.19-.58l-2.63-1.18c-.37-.15-.76-.35-1.18-.58s-.8-.51-1.14-.86c-.34-.34-.63-.74-.86-1.21s-.34-1.03-.34-1.67.13-1.21.38-1.71c.25-.52.6-.97,1.05-1.33s.98-.67,1.6-.89c.62-.21,1.29-.31,2.01-.31,1.05,0,1.98.21,2.8.62s1.49.9,2.01,1.46l-.69.79c-.51-.52-1.11-.96-1.78-1.28-.69-.32-1.46-.49-2.33-.49-1.15,0-2.08.28-2.78.84s-1.05,1.31-1.05,2.26c0,.51.1.94.3,1.29s.44.65.73.9.62.48.97.66.69.35,1,.49l2.63,1.15c.49.21.96.45,1.39.7.44.27.83.56,1.15.91s.6.77.8,1.25.3,1.05.3,1.71-.13,1.28-.39,1.85c-.27.58-.63,1.05-1.11,1.48-.48.41-1.07.73-1.74.97-.69.24-1.45.35-2.29.35h.01Z"/>
    <path class="st0" d="M77.03,107.06v-17.31h1.21v17.31h-1.21Z"/>
    <path class="st0" d="M89.34,107.37c-1.04,0-1.98-.21-2.87-.65s-1.63-1.04-2.26-1.83-1.12-1.74-1.48-2.85-.52-2.35-.52-3.71.17-2.6.52-3.7.84-2.02,1.48-2.81,1.38-1.38,2.26-1.78c.87-.41,1.83-.62,2.87-.62s2.01.21,2.89.62c.87.41,1.63,1.01,2.26,1.78s1.12,1.71,1.48,2.81.52,2.32.52,3.7-.17,2.6-.52,3.71-.84,2.07-1.48,2.85-1.38,1.39-2.26,1.83c-.87.44-1.84.65-2.89.65ZM89.34,106.28c.87,0,1.67-.18,2.39-.56s1.33-.91,1.85-1.6.91-1.52,1.19-2.5c.28-.97.42-2.07.42-3.27s-.14-2.26-.42-3.23c-.28-.96-.67-1.78-1.19-2.46s-1.14-1.19-1.85-1.56-1.52-.55-2.39-.55-1.67.18-2.4.55-1.35.89-1.85,1.56-.9,1.49-1.18,2.46-.42,2.04-.42,3.23.14,2.29.42,3.27c.28.97.67,1.8,1.18,2.5.51.69,1.12,1.22,1.85,1.6s1.53.56,2.4.56Z"/>
    <path class="st0" d="M100.45,107.06v-17.31h1.26l7.31,12.21,1.94,3.44h.11c-.04-.84-.07-1.69-.11-2.52s-.06-1.69-.06-2.52v-10.61h1.15v17.31h-1.26l-7.31-12.21-1.94-3.44h-.1c.03.84.07,1.66.1,2.46s.06,1.62.06,2.46v10.74h-1.15Z"/>
    <path class="st0" d="M122.4,107.06v-17.31h1.21v17.31h-1.21Z"/>
    <path class="st0" d="M128.71,107.06v-17.31h1.26l7.31,12.21,1.94,3.44h.11c-.04-.84-.07-1.69-.11-2.52s-.06-1.69-.06-2.52v-10.61h1.15v17.31h-1.26l-7.31-12.21-1.94-3.44h-.1c.03.84.07,1.66.1,2.46s.06,1.62.06,2.46v10.74h-1.15Z"/>
    <path class="st0" d="M150.66,107.06v-17.31h9.48v1.05h-8.28v6.53h6.93v1.05h-6.93v7.62h8.53v1.05h-9.74Z"/>
    <path class="st0" d="M167.47,107.06l-5.72-17.31h1.29l3.2,10.12c.34,1.05.63,2.02.9,2.89.27.89.58,1.85.93,2.91h.1c.17-.52.34-1.03.49-1.5s.3-.94.44-1.41.28-.93.44-1.41.3-.97.46-1.49l3.2-10.12h1.24l-5.68,17.31s-1.29,0-1.29,0Z"/>
    <path class="st0" d="M177.09,107.06v-17.31h9.48v1.05h-8.28v6.53h6.93v1.05h-6.93v7.62h8.53v1.05s-9.74,0-9.74,0Z"/>
    <path class="st0" d="M190.61,107.06v-17.31h4.96c.86,0,1.64.08,2.33.25.7.17,1.29.44,1.78.8s.87.84,1.14,1.42.41,1.28.41,2.09c0,1.38-.39,2.47-1.19,3.26s-1.88,1.26-3.25,1.45l4.78,8.04h-1.39l-4.71-7.95h-3.68v7.95h-1.21.03ZM191.82,98.11h3.44c1.55,0,2.71-.31,3.53-.93s1.22-1.57,1.22-2.85-.41-2.21-1.24-2.74c-.83-.53-2-.8-3.51-.8h-3.44v7.33h0Z"/>
    <path class="st0" d="M207.78,107.06v-7.01l-5.17-10.3h1.29l2.63,5.41c.3.63.59,1.25.89,1.87s.6,1.24.96,1.87h.1c.34-.63.66-1.25.97-1.87s.62-1.24.9-1.87l2.63-5.41h1.24l-5.2,10.3v7.01h-1.22Z"/>
    <path class="st0" d="M222.07,107.06v-17.31h1.21v16.26h7.98v1.05h-9.19Z"/>
    <path class="st0" d="M232.2,107.06l6.1-17.31h1.21l6.1,17.31h-1.26l-2.02-5.93h-6.86l-2.05,5.93h-1.21,0ZM236.94,96.88l-1.1,3.23h6.14l-1.1-3.23c-.35-1.04-.69-2.02-1-2.96s-.62-1.95-.91-3.02h-.1c-.3,1.07-.6,2.08-.91,3.02s-.65,1.94-1,2.96h-.03Z"/>
    <path class="st0" d="M248.36,107.06v-17.31h4.68c1.76,0,3.15.34,4.17,1.01s1.55,1.74,1.55,3.19c0,.91-.22,1.7-.69,2.37s-1.12,1.14-2,1.41v.1c1.12.2,2.02.63,2.71,1.32.69.69,1.03,1.64,1.03,2.85,0,.84-.15,1.57-.46,2.21s-.74,1.15-1.29,1.57c-.56.42-1.24.73-2.02.94s-1.67.31-2.66.31h-5.02v.03ZM249.57,97.37h2.99c1.77,0,3.04-.3,3.82-.89.77-.59,1.17-1.39,1.17-2.4,0-1.22-.41-2.09-1.24-2.59-.83-.49-2.04-.74-3.63-.74h-3.12s0,6.62,0,6.62ZM249.57,106.07h3.5c1.73,0,3.09-.32,4.09-.97.98-.65,1.49-1.66,1.49-3.05,0-1.26-.48-2.19-1.45-2.78-.97-.59-2.33-.9-4.12-.9h-3.5v7.7h-.01Z"/>
    <path class="st0" d="M263.54,107.06v-17.31h9.48v1.05h-8.28v6.53h6.93v1.05h-6.93v7.62h8.53v1.05h-9.74Z"/>
    <path class="st0" d="M277.07,107.06v-17.31h1.21v16.26h7.98v1.05h-9.19Z"/>
    <path class="st0" d="M303.46,109.86v-22.89h.94v22.89h-.94Z"/>
    <path class="st0" d="M322.89,107.37c-1.26,0-2.37-.24-3.36-.72-.98-.48-1.81-1.11-2.5-1.88l.79-.84c.63.72,1.38,1.29,2.26,1.7s1.81.63,2.81.63c1.33,0,2.37-.32,3.15-.96s1.15-1.48,1.15-2.5c0-.55-.08-1-.25-1.38-.17-.38-.39-.7-.67-.97s-.6-.51-.98-.69c-.38-.2-.77-.38-1.19-.58l-2.63-1.18c-.37-.15-.76-.35-1.18-.58s-.8-.51-1.14-.86c-.34-.34-.63-.74-.86-1.21s-.34-1.03-.34-1.67.13-1.21.38-1.71c.25-.52.6-.97,1.05-1.33s.98-.67,1.6-.89c.62-.21,1.29-.31,2.01-.31,1.05,0,1.98.21,2.8.62s1.49.9,2.01,1.46l-.69.79c-.51-.52-1.11-.96-1.78-1.28-.69-.32-1.46-.49-2.33-.49-1.15,0-2.08.28-2.78.84s-1.05,1.31-1.05,2.26c0,.51.1.94.3,1.29s.44.65.73.9.62.48.97.66.69.35,1,.49l2.63,1.15c.49.21.96.45,1.39.7.44.27.83.56,1.15.91s.6.77.8,1.25c.2.48.3,1.05.3,1.71s-.13,1.28-.39,1.85c-.27.58-.63,1.05-1.11,1.48-.48.41-1.07.73-1.74.97-.69.24-1.45.35-2.29.35h.01Z"/>
    <path class="st0" d="M331.53,107.06v-17.31h1.21v17.31h-1.21Z"/>
    <path class="st0" d="M337.31,107.06v-17.31h1.26l7.31,12.21,1.94,3.44h.11c-.04-.84-.07-1.69-.11-2.52s-.06-1.69-.06-2.52v-10.61h1.15v17.31h-1.26l-7.31-12.21-1.94-3.44h-.1c.03.84.07,1.66.1,2.46s.06,1.62.06,2.46v10.74h-1.15Z"/>
    <path class="st0" d="M359.63,107.37c-1.07,0-2.05-.21-2.94-.63-.9-.42-1.66-1.03-2.3-1.8-.65-.77-1.14-1.73-1.49-2.84-.35-1.11-.52-2.36-.52-3.74s.18-2.6.53-3.71.86-2.04,1.5-2.82c.65-.77,1.42-1.38,2.32-1.78.9-.41,1.91-.62,3.01-.62,1.01,0,1.91.21,2.68.63.77.42,1.38.9,1.84,1.45l-.7.81c-.48-.55-1.03-.97-1.66-1.31-.63-.32-1.33-.49-2.12-.49-.94,0-1.8.18-2.56.55s-1.41.89-1.94,1.56-.94,1.49-1.22,2.46-.42,2.05-.42,3.26.14,2.3.42,3.27.69,1.8,1.21,2.49,1.15,1.21,1.9,1.59,1.57.56,2.52.56,1.69-.18,2.39-.53,1.36-.89,2-1.59l.7.76c-.66.77-1.41,1.38-2.23,1.81s-1.8.66-2.91.66h0Z"/>
    <path class="st0" d="M367.77,107.06v-17.31h9.48v1.05h-8.28v6.53h6.93v1.05h-6.93v7.62h8.53v1.05h-9.74Z"/>
    <path class="st0" d="M385.15,107.06v-1.03h3.93v-13.93h-2.99v-.79c.69-.13,1.29-.27,1.83-.45.53-.17,1-.38,1.41-.6h.94v15.75h3.65v1.03h-8.77Z"/>
    <path class="st0" d="M400.02,107.37c-.79,0-1.48-.15-2.05-.45s-1.08-.69-1.5-1.18l.7-.79c.37.45.8.8,1.29,1.04s1.01.35,1.57.35c.66,0,1.31-.14,1.91-.44s1.14-.76,1.59-1.41.81-1.5,1.1-2.56c.27-1.05.41-2.35.41-3.88-.58.7-1.24,1.26-1.97,1.69s-1.5.63-2.29.63c-1.48,0-2.61-.44-3.43-1.32-.81-.89-1.22-2.18-1.22-3.88,0-.76.13-1.45.37-2.11.24-.65.58-1.19,1-1.66.42-.45.9-.81,1.46-1.08.55-.27,1.14-.39,1.77-.39,1.69,0,3.01.67,3.99,2.04.98,1.36,1.48,3.32,1.48,5.87,0,1.77-.17,3.26-.51,4.47s-.79,2.18-1.35,2.92-1.22,1.28-1.97,1.62c-.76.34-1.53.49-2.33.49h-.01ZM400.95,99.42c.62,0,1.29-.2,2.02-.6s1.42-1.05,2.05-1.94c-.06-.89-.18-1.7-.38-2.43-.2-.73-.48-1.35-.84-1.87s-.8-.91-1.31-1.19c-.52-.28-1.11-.42-1.8-.42-.48,0-.91.11-1.33.32-.42.22-.77.52-1.08.89-.3.38-.53.83-.7,1.33-.17.52-.27,1.07-.27,1.67s.07,1.18.21,1.7.37.97.66,1.33c.3.38.67.67,1.12.89.45.21,1.01.31,1.66.31h-.01Z"/>
    <path class="st0" d="M412.07,107.37c-.79,0-1.48-.15-2.05-.45s-1.08-.69-1.5-1.18l.7-.79c.37.45.8.8,1.29,1.04s1.01.35,1.57.35c.66,0,1.31-.14,1.91-.44s1.14-.76,1.59-1.41.81-1.5,1.1-2.56c.27-1.05.41-2.35.41-3.88-.58.7-1.24,1.26-1.97,1.69s-1.5.63-2.29.63c-1.48,0-2.61-.44-3.43-1.32-.81-.89-1.22-2.18-1.22-3.88,0-.76.13-1.45.37-2.11.24-.65.58-1.19,1-1.66.42-.45.9-.81,1.46-1.08.55-.27,1.14-.39,1.77-.39,1.69,0,3.01.67,3.99,2.04.98,1.36,1.48,3.32,1.48,5.87,0,1.77-.17,3.26-.51,4.47s-.79,2.18-1.35,2.92-1.22,1.28-1.97,1.62c-.76.34-1.53.49-2.33.49h-.01ZM413,99.42c.62,0,1.29-.2,2.02-.6s1.42-1.05,2.05-1.94c-.06-.89-.18-1.7-.38-2.43-.2-.73-.48-1.35-.84-1.87s-.8-.91-1.31-1.19c-.52-.28-1.11-.42-1.8-.42-.48,0-.91.11-1.33.32-.42.22-.77.52-1.08.89-.3.38-.53.83-.7,1.33-.17.52-.27,1.07-.27,1.67s.07,1.18.21,1.7.37.97.66,1.33c.3.38.67.67,1.12.89.45.21,1.01.31,1.66.31h-.01Z"/>
    <path class="st0" d="M424.05,107.06c.07-1.7.21-3.25.44-4.67.22-1.41.53-2.74.93-3.99.41-1.25.91-2.46,1.52-3.6.62-1.15,1.33-2.32,2.18-3.5h-8.85v-1.03h10.33v.69c-1,1.33-1.83,2.61-2.49,3.84s-1.18,2.47-1.57,3.74-.67,2.6-.86,3.98c-.17,1.38-.3,2.89-.37,4.54h-1.26.01Z"/>
  </g>
  <g>
    <path class="st0" d="M48.6,73.62H0V0h48.6C57.86,0,60.98,4.64,60.98,13.03v14.04c0,3.96-1.04,7.14-3.7,8.83,3.82,1.59,5.32,4.98,5.32,9.97v15.18c0,6.34-4.17,12.57-14,12.57ZM44.32,30.24V13.71h-27.42v16.54h27.42ZM45.71,59.92v-17.22h-28.81v17.22h28.81Z"/>
    <path class="st0" d="M192.43,73.62l-20.6-34.43c-3.93-6.68-7.52-13.71-10.41-20.5.23,7.36.35,14.38.35,18.46v36.47h-15.27V0h21.29l20.83,35.68c4.51,7.7,8.33,15.4,11.46,22.31-.23-8.61-.46-16.88-.46-21.18V0h15.27v73.62h-22.46Z"/>
    <path class="st0" d="M291.36,60.48V11.67C291.36,3.51,296.11,0,303.4,0h41.42C353.85,0,356.62,5.55,356.62,14.73v44.96c0,7.36-4.98,13.93-14.12,13.93h-37.37c-7.52,0-13.77-3.96-13.77-13.14h0ZM339.96,59.01V14.73h-31.94v44.29h31.94Z"/>
    <path class="st0" d="M487.27,73.62l-20.6-34.43c-3.93-6.68-7.52-13.71-10.41-20.5.23,7.36.35,14.38.35,18.46v36.47h-15.27V0h21.29l20.83,35.68c4.51,7.7,8.33,15.4,11.46,22.31-.23-8.61-.46-16.88-.46-21.18V0h15.27v73.62h-22.46Z"/>
    <g>
      <polygon class="st0" points="270.77 0 270.77 0 254.1 30.24 253.87 30.24 253.87 30.24 245.31 45.57 245.31 73.62 262.32 73.62 262.32 44.51 288.82 0 270.77 0"/>
      <polygon class="st0" points="252.15 27.07 237.44 0 219.39 0 243.89 42.08 252.15 27.07"/>
    </g>
    <path class="st0" d="M413.79,0v59.01h-29.85V0h0l-16.77,13.67v46.81c0,9.17,6.25,13.14,13.65,13.14h35.99c9.14,0,13.77-6.57,13.77-13.93V0h-16.79Z"/>
    <path class="st0" d="M118.95,0v59.01h-29.85V0h-.03l-16.75,13.65v46.83c0,9.17,6.25,13.14,13.65,13.14h35.99c9.14,0,13.77-6.57,13.77-13.93V0h-16.78Z"/>
    <path class="st0" d="M549.98,44.17h17.24v15.06h-30.32V14.5h34.59L583.66,0h-50C525.56,0,520.35,3.28,520.35,13.48v45.87c0,9.29,5.32,14.27,14.69,14.27h34.48c10.53,0,14.23-6.57,14.23-13.71v-28.43h-33.79v12.69h.02Z"/>
  </g>
</svg>