<?xml version="1.0" encoding="UTF-8"?>
<svg id="Layer_1" xmlns="http://www.w3.org/2000/svg" version="1.1" viewBox="0 0 663.79 102.06">
  <!-- Generator: Adobe Illustrator 30.3.0, SVG Export Plug-In . SVG Version: 2.1.3 Build 182)  -->
  <defs>
    <style>
      .st0 {
        fill: #fff;
      }

      .st1 {
        fill: #caa84b;
      }
    </style>
  </defs>
  <g>
    <path class="st1" d="M108.16,17.8l.06,59.26c0,.76-.28,1.5-.78,2.07l-18.29,20.81c-1.19,1.35-2.9,2.13-4.7,2.13H0L.05,6.26C.05,2.8,2.85,0,6.31,0l81.04.05L5.13,96.65l76.33.1c1.8,0,3.52-.77,4.71-2.13l15.98-18.18c.5-.57.78-1.31.78-2.07l-.08-50.03,5.31-6.54h0Z"/>
    <polygon class="st1" points="60.94 62.93 36.51 70 53.79 49.64 96.04 .19 114.7 .02 87.38 32 60.94 62.93"/>
  </g>
  <g>
    <g>
      <path class="st0" d="M190.55,49.34c0,11.33-9.79,19.38-22.09,19.38h-25.67c-3.97,0-7.27-3.29-7.27-7.27V11.46c0-3.97,3.29-7.27,7.27-7.27h21.02c13.95,0,22.57,6.01,22.57,17.34,0,4.75-2.52,9.2-6.39,12.59,6.49,3.29,10.56,8.53,10.56,15.21h0ZM171.46,23.18c0-4.07-3-7.27-7.85-7.27h-13.56v14.73h12.79c6.39,0,8.62-3.39,8.62-7.46h0ZM175.63,49.34c0-4.65-3.29-7.65-8.14-7.65h-17.44v15.31h17.44c4.65,0,8.14-3,8.14-7.65h0Z"/>
      <path class="st0" d="M257.3,41.88c0,14.92-11.43,27.9-28.97,27.9s-29.06-12.98-29.06-27.9V4.19h14.53v37.69c0,9.3,6.1,14.92,14.53,14.92s14.44-5.62,14.44-14.92V4.19h14.53v37.69Z"/>
      <path class="st0" d="M329.08,62.03c0,3.68-2.71,6.68-6.3,7.17-2.33.29-4.75-.29-6.49-2.33l-31.87-37.4v39.24h-14.53V10.78c0-3.97,3.29-7.27,7.27-7.27,2.23,0,3.88.58,5.52,2.52,0,0,10.08,11.92,31.87,37.2V4.19h14.53v57.84Z"/>
      <path class="st0" d="M370.45,43.33v25.38h-14.53v-25.38l-21.99-39.14h14.53l14.73,26.35,14.63-26.35h14.53l-21.9,39.14h0Z"/>
      <path class="st0" d="M455.51,36.55c0,18.41-13.47,33.23-33.23,33.23s-33.33-14.82-33.33-33.23,13.56-33.33,33.33-33.33,33.23,14.92,33.23,33.33h0ZM441.07,36.55c0-11.72-7.07-20.44-18.8-20.44s-18.8,8.72-18.8,20.44,7.07,20.34,18.8,20.34,18.8-8.62,18.8-20.34Z"/>
      <path class="st0" d="M521.29,41.88c0,14.92-11.43,27.9-28.97,27.9s-29.06-12.98-29.06-27.9V4.19h14.53v37.69c0,9.3,6.1,14.92,14.53,14.92s14.44-5.62,14.44-14.92V4.19h14.53v37.69Z"/>
      <path class="st0" d="M593.07,62.03c0,3.68-2.71,6.68-6.3,7.17-2.33.29-4.75-.29-6.49-2.33l-31.87-37.4v39.24h-14.53V10.78c0-3.97,3.29-7.27,7.27-7.27,2.23,0,3.88.58,5.52,2.52,0,0,10.08,11.92,31.87,37.2V4.19h14.53v57.84h0Z"/>
      <path class="st0" d="M663.79,54.47c-4.36,8.33-14.92,15.31-27.61,15.31-19.09,0-34.39-13.95-34.39-33.33,0-20.54,14.53-33.23,35.46-33.23,7.07,0,14.92,1.45,20.93,3.68l-3,12.11c-4.84-1.55-11.63-2.91-16.47-2.91-15.02,0-22.38,7.17-22.38,20.35,0,11.53,7.65,20.44,19.86,20.44,6.01,0,10.46-1.94,13.27-5.23v-15.79h14.34v18.6h-.01Z"/>
    </g>
    <g>
      <path class="st0" d="M139.23,96.32v-13.04h7.15v.79h-6.23v4.92h5.22v.79h-5.22v5.74h6.43v.79h-7.35Z"/>
      <path class="st0" d="M149.42,96.32v-13.04h.95l5.5,9.2,1.46,2.6h.07c-.02-.63-.05-1.26-.07-1.9-.02-.63-.04-1.26-.04-1.9v-7.99h.87v13.04h-.95l-5.5-9.2-1.46-2.6h-.07c.02.63.05,1.25.07,1.86s.04,1.21.04,1.86v8.09h-.87Z"/>
      <path class="st0" d="M166.77,96.56c-.84,0-1.61-.16-2.3-.47-.68-.32-1.27-.77-1.76-1.36s-.87-1.3-1.14-2.14-.41-1.78-.41-2.82.14-1.95.42-2.8c.27-.83.67-1.55,1.16-2.13.51-.58,1.11-1.04,1.82-1.35.72-.31,1.5-.47,2.35-.47.43,0,.83.05,1.2.14.36.1.69.21.98.37.28.15.56.32.78.51.24.19.43.37.61.56l-.53.62c-.35-.37-.75-.68-1.22-.95-.47-.26-1.06-.4-1.78-.4-.75,0-1.42.14-2.02.42-.59.27-1.1.67-1.51,1.18-.42.51-.73,1.13-.96,1.86-.22.73-.33,1.55-.33,2.45s.11,1.73.32,2.46.52,1.36.92,1.87c.41.52.9.92,1.48,1.2s1.25.42,1.99.42c.59,0,1.15-.09,1.67-.26.52-.17.94-.42,1.26-.73v-4.06h-3.13v-.77h4v5.17c-.41.43-.94.79-1.6,1.06s-1.41.42-2.26.42Z"/>
      <path class="st0" d="M173.99,96.32v-13.04h.92v13.04h-.92Z"/>
      <path class="st0" d="M178.74,96.32v-13.04h.95l5.5,9.2,1.46,2.6h.07c-.02-.63-.05-1.26-.07-1.9-.02-.63-.04-1.26-.04-1.9v-7.99h.87v13.04h-.95l-5.5-9.2-1.46-2.6h-.07c.02.63.05,1.25.07,1.86s.04,1.21.04,1.86v8.09h-.87Z"/>
      <path class="st0" d="M191.31,96.32v-13.04h7.15v.79h-6.23v4.92h5.22v.79h-5.22v5.74h6.43v.79h-7.35Z"/>
      <path class="st0" d="M201.51,96.32v-13.04h7.15v.79h-6.23v4.92h5.22v.79h-5.22v5.74h6.43v.79h-7.35Z"/>
      <path class="st0" d="M211.7,96.32v-13.04h3.74c.64,0,1.24.06,1.76.19.53.12.98.32,1.35.61.37.27.66.63.87,1.06s.31.96.31,1.58c0,1.04-.3,1.86-.9,2.45-.61.59-1.41.95-2.45,1.09l3.6,6.06h-1.05l-3.54-6h-2.77v6h-.92.01ZM212.61,89.58h2.6c1.16,0,2.05-.24,2.66-.71.62-.47.92-1.19.92-2.15s-.31-1.67-.93-2.07-1.51-.61-2.65-.61h-2.6v5.52h0Z"/>
      <path class="st0" d="M222.47,96.32v-13.04h7.15v.79h-6.23v4.92h5.22v.79h-5.22v5.74h6.43v.79h-7.35Z"/>
      <path class="st0" d="M232.66,96.32v-13.04h3.03c1,0,1.88.15,2.62.46.74.31,1.36.74,1.86,1.31.48.57.85,1.25,1.09,2.04s.36,1.68.36,2.67-.12,1.89-.36,2.7-.61,1.51-1.09,2.08c-.49.57-1.1,1.01-1.84,1.32s-1.61.47-2.61.47h-3.06ZM233.57,95.55h2.02c.88,0,1.65-.14,2.29-.42.64-.28,1.16-.68,1.57-1.2s.72-1.13.92-1.83.3-1.48.3-2.35-.1-1.62-.3-2.31c-.2-.71-.51-1.3-.92-1.81s-.93-.89-1.57-1.16-1.4-.42-2.29-.42h-2.02v11.5Z"/>
      <path class="st0" d="M248.57,96.32v-13.04h7.1v.79h-6.2v5.18h5.24v.79h-5.24v6.27h-.92.01Z"/>
      <path class="st0" d="M262.35,96.56c-.78,0-1.5-.16-2.15-.48s-1.22-.78-1.71-1.37c-.47-.59-.84-1.31-1.11-2.15-.26-.84-.4-1.77-.4-2.8s.14-1.95.4-2.78.63-1.53,1.11-2.12c.47-.58,1.04-1.04,1.71-1.35.66-.31,1.37-.47,2.15-.47s1.52.16,2.18.47,1.22.75,1.71,1.35c.47.59.84,1.3,1.11,2.12.26.83.4,1.76.4,2.78s-.14,1.97-.4,2.8-.63,1.56-1.11,2.15c-.47.59-1.04,1.05-1.71,1.37-.66.32-1.39.48-2.18.48ZM262.35,95.72c.66,0,1.26-.14,1.81-.42s1-.68,1.4-1.21c.38-.52.69-1.15.9-1.88s.32-1.56.32-2.46-.11-1.71-.32-2.44c-.21-.73-.51-1.34-.9-1.86-.38-.51-.85-.9-1.4-1.18-.54-.27-1.14-.42-1.81-.42s-1.26.14-1.81.42c-.54.27-1.01.67-1.4,1.18-.38.51-.68,1.13-.89,1.86s-.32,1.53-.32,2.44.11,1.73.32,2.46.51,1.36.89,1.88.85.93,1.4,1.21,1.15.42,1.81.42Z"/>
      <path class="st0" d="M270.71,96.32v-13.04h3.74c.64,0,1.24.06,1.76.19.53.12.98.32,1.35.61.37.27.66.63.87,1.06s.31.96.31,1.58c0,1.04-.3,1.86-.9,2.45-.61.59-1.41.95-2.45,1.09l3.6,6.06h-1.05l-3.54-6h-2.77v6h-.92.01ZM271.62,89.58h2.6c1.16,0,2.05-.24,2.66-.71.62-.47.92-1.19.92-2.15s-.31-1.67-.93-2.07-1.51-.61-2.65-.61h-2.6v5.52h0Z"/>
      <path class="st0" d="M285.44,96.32v-13.04h3.29c.74,0,1.4.06,1.99.19s1.08.33,1.48.62c.41.28.72.67.93,1.13.22.46.32,1.03.32,1.71,0,1.27-.41,2.23-1.22,2.86-.82.63-1.95.94-3.43.94h-2.45v5.6h-.92ZM286.34,89.95h2.24c1.34,0,2.33-.24,2.97-.72.64-.47.96-1.25.96-2.31s-.33-1.84-1-2.25-1.67-.62-3.02-.62h-2.15v5.9Z"/>
      <path class="st0" d="M296.3,96.32v-13.04h7.15v.79h-6.23v4.92h5.22v.79h-5.22v5.74h6.43v.79h-7.35Z"/>
      <path class="st0" d="M306.49,96.32v-13.04h3.74c.64,0,1.24.06,1.76.19.53.12.98.32,1.35.61.37.27.66.63.87,1.06s.31.96.31,1.58c0,1.04-.3,1.86-.9,2.45-.61.59-1.41.95-2.45,1.09l3.6,6.06h-1.05l-3.54-6h-2.77v6h-.92.01ZM307.41,89.58h2.6c1.16,0,2.05-.24,2.66-.71.62-.47.92-1.19.92-2.15s-.31-1.67-.93-2.07-1.51-.61-2.65-.61h-2.6v5.52h0Z"/>
      <path class="st0" d="M317.26,96.32v-13.04h7.1v.79h-6.2v5.18h5.24v.79h-5.24v6.27h-.92.01Z"/>
      <path class="st0" d="M326.7,96.32v-13.04h7.15v.79h-6.23v4.92h5.22v.79h-5.22v5.74h6.43v.79h-7.35Z"/>
      <path class="st0" d="M341.52,96.56c-.8,0-1.55-.16-2.21-.47-.67-.32-1.25-.77-1.73-1.36-.48-.58-.85-1.3-1.11-2.14s-.4-1.78-.4-2.82.14-1.95.41-2.8c.27-.83.66-1.55,1.14-2.13s1.08-1.04,1.76-1.35c.68-.31,1.43-.47,2.26-.47.77,0,1.43.16,2.02.47.58.32,1.04.68,1.39,1.09l-.53.62c-.36-.41-.77-.73-1.25-.98s-1.01-.37-1.61-.37c-.72,0-1.36.14-1.93.42-.57.27-1.06.67-1.46,1.18-.41.51-.71,1.13-.92,1.86-.21.73-.32,1.55-.32,2.45s.11,1.73.32,2.46.52,1.36.92,1.87c.4.52.88.92,1.43,1.2s1.19.42,1.89.42,1.27-.14,1.81-.41,1.03-.67,1.51-1.2l.53.57c-.51.58-1.06,1.04-1.68,1.36s-1.35.49-2.2.49l-.02.04Z"/>
      <path class="st0" d="M350.45,96.32v-12.24h-4.16v-.79h9.23v.79h-4.16v12.24h-.92Z"/>
      <path class="st0" d="M361.96,96.32v-13.04h3.29c.74,0,1.4.06,1.99.19s1.08.33,1.48.62c.41.28.72.67.93,1.13.22.46.32,1.03.32,1.71,0,1.27-.41,2.23-1.22,2.86-.82.63-1.95.94-3.43.94h-2.45v5.6h-.92ZM362.88,89.95h2.24c1.34,0,2.33-.24,2.97-.72.64-.47.96-1.25.96-2.31s-.33-1.84-1-2.25-1.67-.62-3.02-.62h-2.15v5.9Z"/>
      <path class="st0" d="M372.82,96.32v-13.04h3.74c.64,0,1.24.06,1.76.19.53.12.98.32,1.35.61.37.27.66.63.87,1.06s.31.96.31,1.58c0,1.04-.3,1.86-.9,2.45-.61.59-1.41.95-2.45,1.09l3.6,6.06h-1.05l-3.54-6h-2.77v6h-.92.01ZM373.74,89.58h2.6c1.16,0,2.05-.24,2.66-.71.62-.47.92-1.19.92-2.15s-.31-1.67-.93-2.07-1.51-.61-2.65-.61h-2.6v5.52h0Z"/>
      <path class="st0" d="M383.6,96.32v-13.04h.92v13.04h-.92Z"/>
      <path class="st0" d="M388.35,96.32v-13.04h.95l5.5,9.2,1.46,2.6h.07c-.02-.63-.05-1.26-.07-1.9-.02-.63-.04-1.26-.04-1.9v-7.99h.87v13.04h-.95l-5.5-9.2-1.46-2.6h-.07c.02.63.05,1.25.07,1.86s.04,1.21.04,1.86v8.09h-.87Z"/>
      <path class="st0" d="M403.73,96.32v-12.24h-4.16v-.79h9.23v.79h-4.16v12.24h-.92Z"/>
      <path class="st0" d="M411.3,96.32v-13.04h.92v13.04h-.92Z"/>
      <path class="st0" d="M416.05,96.32v-13.04h.95l5.5,9.2,1.46,2.6h.07c-.02-.63-.05-1.26-.07-1.9-.02-.63-.04-1.26-.04-1.9v-7.99h.87v13.04h-.95l-5.5-9.2-1.46-2.6h-.07c.02.63.05,1.25.07,1.86s.04,1.21.04,1.86v8.09h-.87Z"/>
      <path class="st0" d="M433.4,96.56c-.84,0-1.61-.16-2.3-.47-.68-.32-1.27-.77-1.76-1.36s-.87-1.3-1.14-2.14-.41-1.78-.41-2.82.14-1.95.42-2.8c.27-.83.67-1.55,1.16-2.13.51-.58,1.11-1.04,1.82-1.35.72-.31,1.5-.47,2.35-.47.43,0,.83.05,1.2.14.36.1.69.21.98.37.28.15.56.32.78.51.24.19.43.37.61.56l-.53.62c-.35-.37-.75-.68-1.22-.95-.47-.26-1.06-.4-1.78-.4-.75,0-1.42.14-2.02.42-.59.27-1.1.67-1.51,1.18-.42.51-.73,1.13-.96,1.86-.22.73-.33,1.55-.33,2.45s.11,1.73.32,2.46.52,1.36.92,1.87c.41.52.9.92,1.48,1.2s1.25.42,1.99.42c.59,0,1.15-.09,1.67-.26s.94-.42,1.26-.73v-4.06h-3.13v-.77h4v5.17c-.41.43-.94.79-1.6,1.06s-1.41.42-2.26.42h0Z"/>
      <path class="st0" d="M451.25,98.84v-19.79h.72v19.79h-.72Z"/>
      <path class="st0" d="M465.9,96.56c-.95,0-1.79-.19-2.54-.54s-1.36-.83-1.88-1.41l.59-.63c.47.54,1.04.96,1.71,1.29.66.32,1.36.47,2.12.47,1,0,1.79-.24,2.37-.72s.87-1.11.87-1.89c0-.41-.06-.75-.19-1.04s-.3-.53-.51-.73c-.21-.21-.46-.38-.74-.52-.28-.15-.58-.28-.9-.43l-1.98-.89c-.27-.12-.57-.26-.89-.43s-.61-.38-.87-.64-.47-.56-.64-.92-.26-.77-.26-1.26.1-.9.28-1.3c.19-.38.46-.73.79-1.01s.74-.51,1.21-.67.98-.24,1.51-.24c.79,0,1.5.16,2.1.47.62.31,1.11.68,1.51,1.1l-.52.59c-.38-.4-.83-.72-1.35-.96s-1.1-.37-1.76-.37c-.87,0-1.57.21-2.1.63-.53.42-.79.99-.79,1.71,0,.38.07.71.22.96s.33.49.56.68c.22.19.47.36.73.49s.52.26.75.37l1.98.87c.37.16.72.33,1.05.53.33.2.62.43.87.69s.46.58.61.94.22.79.22,1.3-.1.96-.3,1.4-.48.8-.84,1.11c-.36.31-.8.56-1.31.73-.52.17-1.09.27-1.72.27h.02Z"/>
      <path class="st0" d="M472.4,96.32v-13.04h.92v13.04h-.92Z"/>
      <path class="st0" d="M476.76,96.32v-13.04h.95l5.5,9.2,1.46,2.6h.07c-.02-.63-.05-1.26-.07-1.9-.02-.63-.04-1.26-.04-1.9v-7.99h.87v13.04h-.95l-5.5-9.2-1.46-2.6h-.07c.02.63.05,1.25.07,1.86s.04,1.21.04,1.86v8.09h-.87Z"/>
      <path class="st0" d="M493.58,96.56c-.8,0-1.55-.16-2.21-.47-.67-.32-1.25-.77-1.73-1.36-.48-.58-.85-1.3-1.11-2.14s-.4-1.78-.4-2.82.14-1.95.41-2.8c.27-.83.66-1.55,1.14-2.13s1.08-1.04,1.76-1.35c.68-.31,1.43-.47,2.26-.47.77,0,1.43.16,2.02.47.58.32,1.04.68,1.39,1.09l-.53.62c-.36-.41-.77-.73-1.25-.98s-1.01-.37-1.61-.37c-.72,0-1.36.14-1.93.42-.57.27-1.06.67-1.46,1.18-.41.51-.71,1.13-.92,1.86-.21.73-.32,1.55-.32,2.45s.11,1.73.32,2.46.52,1.36.92,1.87c.4.52.88.92,1.43,1.2s1.19.42,1.89.42,1.27-.14,1.81-.41,1.03-.67,1.51-1.2l.53.57c-.51.58-1.06,1.04-1.68,1.36s-1.35.49-2.2.49l-.02.04Z"/>
      <path class="st0" d="M499.71,96.32v-13.04h7.15v.79h-6.23v4.92h5.22v.79h-5.22v5.74h6.43v.79h-7.35Z"/>
      <path class="st0" d="M512.82,96.32v-.77h2.97v-10.49h-2.25v-.59c.52-.09.98-.21,1.37-.33.41-.14.75-.28,1.06-.46h.72v11.87h2.75v.77h-6.62Z"/>
      <path class="st0" d="M524.02,96.56c-.59,0-1.11-.11-1.55-.33s-.82-.52-1.13-.89l.53-.59c.27.35.61.61.96.78.37.17.77.27,1.19.27.51,0,.98-.11,1.43-.32.46-.22.85-.57,1.2-1.06.35-.48.62-1.14.82-1.93.21-.79.31-1.77.31-2.92-.43.53-.93.95-1.48,1.26-.56.32-1.13.47-1.72.47-1.11,0-1.97-.33-2.59-1s-.92-1.65-.92-2.92c0-.57.09-1.09.27-1.58.19-.48.43-.9.75-1.25s.68-.62,1.1-.82c.42-.2.87-.3,1.34-.3,1.26,0,2.26.51,3.01,1.53.74,1.03,1.11,2.5,1.11,4.43,0,1.34-.12,2.45-.38,3.36s-.59,1.65-1.01,2.2-.92.96-1.48,1.21c-.57.25-1.15.37-1.76.37v.02ZM524.71,90.57c.46,0,.96-.15,1.52-.46s1.06-.79,1.55-1.46c-.04-.67-.14-1.29-.28-1.83-.15-.54-.36-1.01-.63-1.41-.27-.38-.61-.69-.99-.9-.38-.21-.84-.32-1.36-.32-.36,0-.69.09-1.01.25s-.59.4-.82.67c-.22.28-.41.62-.53,1.01-.14.38-.2.8-.2,1.26s.05.89.16,1.27c.11.4.27.73.49,1.01s.51.51.85.67.75.24,1.25.24h0Z"/>
      <path class="st0" d="M533.11,96.56c-.59,0-1.11-.11-1.55-.33s-.82-.52-1.13-.89l.53-.59c.27.35.61.61.96.78.37.17.77.27,1.19.27.51,0,.98-.11,1.43-.32.46-.22.85-.57,1.2-1.06.35-.48.62-1.14.82-1.93.21-.79.31-1.77.31-2.92-.43.53-.93.95-1.48,1.26-.56.32-1.13.47-1.72.47-1.11,0-1.97-.33-2.59-1s-.92-1.65-.92-2.92c0-.57.09-1.09.27-1.58.19-.48.43-.9.75-1.25s.68-.62,1.1-.82c.42-.2.87-.3,1.34-.3,1.26,0,2.26.51,3.01,1.53.74,1.03,1.11,2.5,1.11,4.43,0,1.34-.12,2.45-.38,3.36s-.59,1.65-1.01,2.2-.92.96-1.48,1.21c-.57.25-1.15.37-1.76.37v.02ZM533.8,90.57c.46,0,.96-.15,1.52-.46s1.06-.79,1.55-1.46c-.04-.67-.14-1.29-.28-1.83-.15-.54-.36-1.01-.63-1.41-.27-.38-.61-.69-.99-.9-.38-.21-.84-.32-1.36-.32-.36,0-.69.09-1.01.25s-.59.4-.82.67c-.22.28-.41.62-.53,1.01-.14.38-.2.8-.2,1.26s.05.89.16,1.27c.11.4.27.73.49,1.01s.51.51.85.67.75.24,1.25.24h0Z"/>
      <path class="st0" d="M542.12,96.32c.05-1.27.16-2.45.32-3.51s.4-2.07.71-3.01.68-1.84,1.15-2.71c.46-.87,1.01-1.74,1.65-2.65h-6.67v-.77h7.78v.52c-.75,1-1.37,1.97-1.87,2.89-.49.93-.89,1.87-1.19,2.82s-.51,1.95-.64,2.99-.22,2.18-.27,3.43h-.96Z"/>
    </g>
  </g>
</svg>